<?xml version="1.0" encoding="UTF-8" standalone="no"?>
<!DOCTYPE svg PUBLIC "-//W3C//DTD SVG 1.1//EN"
 "http://www.w3.org/Graphics/SVG/1.1/DTD/svg11.dtd">
<!-- Generated by graphviz version 2.38.0 (20140413.2041)
 -->
<!-- Title: models_diagram Pages: 1 -->
<svg width="1135pt" height="453pt"
 viewBox="0.00 0.00 1135.41 453.00" xmlns="http://www.w3.org/2000/svg" xmlns:xlink="http://www.w3.org/1999/xlink">
<g id="graph0" class="graph" transform="scale(1 1) rotate(0) translate(4 449)">
<title>models_diagram</title>
<polygon fill="none" stroke="none" points="-4,4 -4,-449 1131.41,-449 1131.41,4 -4,4"/>
<!-- _diagram_info -->
<g id="node1" class="node"><title>_diagram_info</title>
<text text-anchor="start" x="8" y="-360.6" font-family="Times,serif" font-size="13.00">Models diagram</text>
<text text-anchor="start" x="8" y="-347.6" font-family="Times,serif" font-size="13.00">Date: Mar 16 2016 &#45; 11:12</text>
<text text-anchor="start" x="8" y="-334.6" font-family="Times,serif" font-size="13.00">Migration version: 20160316132743</text>
<text text-anchor="start" x="8" y="-321.6" font-family="Times,serif" font-size="13.00">Generated by RailRoady 1.4.2</text>
<text text-anchor="start" x="8" y="-308.6" font-family="Times,serif" font-size="13.00">http://railroady.prestonlee.com</text>
</g>
<!-- ApplicationRecord -->
<g id="node2" class="node"><title>ApplicationRecord</title>
<ellipse fill="none" stroke="black" cx="302.688" cy="-338.5" rx="77.2916" ry="18"/>
<text text-anchor="middle" x="302.688" y="-334.3" font-family="Times,serif" font-size="14.00">ApplicationRecord</text>
</g>
<!-- Entity -->
<g id="node3" class="node"><title>Entity</title>
<path fill="none" stroke="black" d="M409.586,-232.5C409.586,-232.5 545.79,-232.5 545.79,-232.5 551.79,-232.5 557.79,-238.5 557.79,-244.5 557.79,-244.5 557.79,-432.5 557.79,-432.5 557.79,-438.5 551.79,-444.5 545.79,-444.5 545.79,-444.5 409.586,-444.5 409.586,-444.5 403.586,-444.5 397.586,-438.5 397.586,-432.5 397.586,-432.5 397.586,-244.5 397.586,-244.5 397.586,-238.5 403.586,-232.5 409.586,-232.5"/>
<text text-anchor="middle" x="477.688" y="-429.3" font-family="Times,serif" font-size="14.00">Entity</text>
<polyline fill="none" stroke="black" points="397.586,-422.5 557.79,-422.5 "/>
<text text-anchor="start" x="405.586" y="-407.3" font-family="Times,serif" font-size="14.00">country :text</text>
<text text-anchor="start" x="405.586" y="-393.3" font-family="Times,serif" font-size="14.00">name :varchar(255)</text>
<text text-anchor="start" x="405.586" y="-379.3" font-family="Times,serif" font-size="14.00">legal_name :varchar(255)</text>
<text text-anchor="start" x="405.586" y="-365.3" font-family="Times,serif" font-size="14.00">legal_other :text</text>
<text text-anchor="start" x="405.586" y="-351.3" font-family="Times,serif" font-size="14.00">address :text</text>
<text text-anchor="start" x="405.586" y="-337.3" font-family="Times,serif" font-size="14.00">telephone :text</text>
<text text-anchor="start" x="405.586" y="-323.3" font-family="Times,serif" font-size="14.00">fax :text</text>
<text text-anchor="start" x="405.586" y="-309.3" font-family="Times,serif" font-size="14.00">email :text</text>
<text text-anchor="start" x="405.586" y="-295.3" font-family="Times,serif" font-size="14.00">dp_reg :text</text>
<text text-anchor="start" x="405.586" y="-281.3" font-family="Times,serif" font-size="14.00">dp_contact :text</text>
<text text-anchor="start" x="405.586" y="-267.3" font-family="Times,serif" font-size="14.00">signatory :text</text>
<text text-anchor="start" x="405.586" y="-253.3" font-family="Times,serif" font-size="14.00">is_eea :tinyint(1)</text>
<text text-anchor="start" x="405.586" y="-239.3" font-family="Times,serif" font-size="14.00">id :int(11)</text>
</g>
<!-- EntityTransfer -->
<g id="node4" class="node"><title>EntityTransfer</title>
<path fill="none" stroke="black" d="M465.896,-0.5C465.896,-0.5 583.479,-0.5 583.479,-0.5 589.479,-0.5 595.479,-6.5 595.479,-12.5 595.479,-12.5 595.479,-74.5 595.479,-74.5 595.479,-80.5 589.479,-86.5 583.479,-86.5 583.479,-86.5 465.896,-86.5 465.896,-86.5 459.896,-86.5 453.896,-80.5 453.896,-74.5 453.896,-74.5 453.896,-12.5 453.896,-12.5 453.896,-6.5 459.896,-0.5 465.896,-0.5"/>
<text text-anchor="middle" x="524.688" y="-71.3" font-family="Times,serif" font-size="14.00">EntityTransfer</text>
<polyline fill="none" stroke="black" points="453.896,-64.5 595.479,-64.5 "/>
<text text-anchor="start" x="461.896" y="-49.3" font-family="Times,serif" font-size="14.00">id :int(11)</text>
<text text-anchor="start" x="461.896" y="-35.3" font-family="Times,serif" font-size="14.00">entity_id :int(11)</text>
<text text-anchor="start" x="461.896" y="-21.3" font-family="Times,serif" font-size="14.00">transfer_id :int(11)</text>
<text text-anchor="start" x="461.896" y="-7.3" font-family="Times,serif" font-size="14.00">is_recipient :tinyint(1)</text>
</g>
<!-- Entity&#45;&gt;EntityTransfer -->
<g id="edge1" class="edge"><title>Entity&#45;&gt;EntityTransfer</title>
<path fill="none" stroke="#a33968" d="M495.872,-224.137C502.907,-180.279 510.613,-132.24 516.285,-96.8837"/>
<ellipse fill="none" stroke="#a33968" cx="495.223" cy="-228.185" rx="4.00001" ry="4.00001"/>
<polygon fill="#a33968" stroke="#a33968" points="516.318,-96.6741 522.346,-87.5131 517.11,-91.7372 517.902,-86.8003 517.902,-86.8003 517.902,-86.8003 517.11,-91.7372 513.459,-86.0876 516.318,-96.6741 516.318,-96.6741"/>
</g>
<!-- Transfer -->
<g id="node7" class="node"><title>Transfer</title>
<path fill="none" stroke="black" d="M602.325,-123.5C602.325,-123.5 731.051,-123.5 731.051,-123.5 737.051,-123.5 743.051,-129.5 743.051,-135.5 743.051,-135.5 743.051,-183.5 743.051,-183.5 743.051,-189.5 737.051,-195.5 731.051,-195.5 731.051,-195.5 602.325,-195.5 602.325,-195.5 596.325,-195.5 590.325,-189.5 590.325,-183.5 590.325,-183.5 590.325,-135.5 590.325,-135.5 590.325,-129.5 596.325,-123.5 602.325,-123.5"/>
<text text-anchor="middle" x="666.688" y="-180.3" font-family="Times,serif" font-size="14.00">Transfer</text>
<polyline fill="none" stroke="black" points="590.325,-173.5 743.051,-173.5 "/>
<text text-anchor="start" x="598.325" y="-158.3" font-family="Times,serif" font-size="14.00">id :int(11)</text>
<text text-anchor="start" x="598.325" y="-144.3" font-family="Times,serif" font-size="14.00">transfer_type_id :int(11)</text>
<text text-anchor="start" x="598.325" y="-130.3" font-family="Times,serif" font-size="14.00">name :varchar(255)</text>
</g>
<!-- Entity&#45;&gt;Transfer -->
<g id="edge2" class="edge"><title>Entity&#45;&gt;Transfer</title>
<path fill="none" stroke="#0a777d" d="M565.326,-233.264C565.78,-232.84 566.234,-232.419 566.688,-232 578.138,-221.432 591.19,-211.076 603.999,-201.672"/>
<polygon fill="#0a777d" stroke="#0a777d" points="565.211,-233.374 554.881,-237.054 561.604,-236.837 557.997,-240.3 557.997,-240.3 557.997,-240.3 561.604,-236.837 561.114,-243.546 565.211,-233.374 565.211,-233.374"/>
<polygon fill="#0a777d" stroke="#0a777d" points="604.254,-201.488 614.996,-199.285 608.308,-198.562 612.363,-195.636 612.363,-195.636 612.363,-195.636 608.308,-198.562 609.729,-191.987 604.254,-201.488 604.254,-201.488"/>
</g>
<!-- Purpose -->
<g id="node5" class="node"><title>Purpose</title>
<path fill="none" stroke="black" d="M787.172,-253.5C787.172,-253.5 896.203,-253.5 896.203,-253.5 902.203,-253.5 908.203,-259.5 908.203,-265.5 908.203,-265.5 908.203,-411.5 908.203,-411.5 908.203,-417.5 902.203,-423.5 896.203,-423.5 896.203,-423.5 787.172,-423.5 787.172,-423.5 781.172,-423.5 775.172,-417.5 775.172,-411.5 775.172,-411.5 775.172,-265.5 775.172,-265.5 775.172,-259.5 781.172,-253.5 787.172,-253.5"/>
<text text-anchor="middle" x="841.688" y="-408.3" font-family="Times,serif" font-size="14.00">Purpose</text>
<polyline fill="none" stroke="black" points="775.172,-401.5 908.203,-401.5 "/>
<text text-anchor="start" x="783.172" y="-386.3" font-family="Times,serif" font-size="14.00">security_policy :text</text>
<text text-anchor="start" x="783.172" y="-372.3" font-family="Times,serif" font-size="14.00">name :varchar(255)</text>
<text text-anchor="start" x="783.172" y="-358.3" font-family="Times,serif" font-size="14.00">full_description :text</text>
<text text-anchor="start" x="783.172" y="-344.3" font-family="Times,serif" font-size="14.00">data_subjects :text</text>
<text text-anchor="start" x="783.172" y="-330.3" font-family="Times,serif" font-size="14.00">data_categories :text</text>
<text text-anchor="start" x="783.172" y="-316.3" font-family="Times,serif" font-size="14.00">data_recipients :text</text>
<text text-anchor="start" x="783.172" y="-302.3" font-family="Times,serif" font-size="14.00">additional_info :text</text>
<text text-anchor="start" x="783.172" y="-288.3" font-family="Times,serif" font-size="14.00">storage_limit :text</text>
<text text-anchor="start" x="783.172" y="-274.3" font-family="Times,serif" font-size="14.00">data_sensitive :text</text>
<text text-anchor="start" x="783.172" y="-260.3" font-family="Times,serif" font-size="14.00">id :int(11)</text>
</g>
<!-- PurposeTransfer -->
<g id="node6" class="node"><title>PurposeTransfer</title>
<path fill="none" stroke="black" d="M640.091,-7.5C640.091,-7.5 739.285,-7.5 739.285,-7.5 745.285,-7.5 751.285,-13.5 751.285,-19.5 751.285,-19.5 751.285,-67.5 751.285,-67.5 751.285,-73.5 745.285,-79.5 739.285,-79.5 739.285,-79.5 640.091,-79.5 640.091,-79.5 634.091,-79.5 628.091,-73.5 628.091,-67.5 628.091,-67.5 628.091,-19.5 628.091,-19.5 628.091,-13.5 634.091,-7.5 640.091,-7.5"/>
<text text-anchor="middle" x="689.688" y="-64.3" font-family="Times,serif" font-size="14.00">PurposeTransfer</text>
<polyline fill="none" stroke="black" points="628.091,-57.5 751.285,-57.5 "/>
<text text-anchor="start" x="636.091" y="-42.3" font-family="Times,serif" font-size="14.00">id :int(11)</text>
<text text-anchor="start" x="636.091" y="-28.3" font-family="Times,serif" font-size="14.00">purpose_id :int(11)</text>
<text text-anchor="start" x="636.091" y="-14.3" font-family="Times,serif" font-size="14.00">transfer_id :int(11)</text>
</g>
<!-- Purpose&#45;&gt;PurposeTransfer -->
<g id="edge3" class="edge"><title>Purpose&#45;&gt;PurposeTransfer</title>
<path fill="none" stroke="#536b55" d="M809.538,-245.775C794.271,-206.759 774.384,-161.481 751.688,-123 744.588,-110.963 735.826,-98.7371 727.148,-87.6303"/>
<ellipse fill="none" stroke="#536b55" cx="811.084" cy="-249.761" rx="4.00001" ry="4.00001"/>
<polygon fill="#536b55" stroke="#536b55" points="727.105,-87.5766 724.387,-76.9531 723.987,-83.668 720.869,-79.7594 720.869,-79.7594 720.869,-79.7594 723.987,-83.668 717.351,-82.5658 727.105,-87.5766 727.105,-87.5766"/>
</g>
<!-- Purpose&#45;&gt;Transfer -->
<g id="edge4" class="edge"><title>Purpose&#45;&gt;Transfer</title>
<path fill="none" stroke="#d1d88f" d="M779.111,-245.369C775.058,-240.72 770.907,-236.23 766.688,-232 755.932,-221.215 743.402,-210.887 730.922,-201.598"/>
<polygon fill="#d1d88f" stroke="#d1d88f" points="779.379,-245.687 782.394,-256.23 782.606,-249.507 785.832,-253.327 785.832,-253.327 785.832,-253.327 782.606,-249.507 789.27,-250.423 779.379,-245.687 779.379,-245.687"/>
<polygon fill="#d1d88f" stroke="#d1d88f" points="730.833,-201.534 725.395,-192.012 726.79,-198.592 722.747,-195.65 722.747,-195.65 722.747,-195.65 726.79,-198.592 720.1,-199.289 730.833,-201.534 730.833,-201.534"/>
</g>
<!-- Transfer&#45;&gt;EntityTransfer -->
<g id="edge6" class="edge"><title>Transfer&#45;&gt;EntityTransfer</title>
<path fill="none" stroke="#740e8f" d="M616.357,-118.093C606.198,-109.938 595.421,-101.286 584.962,-92.8895"/>
<ellipse fill="none" stroke="#740e8f" cx="619.805" cy="-120.862" rx="4.00002" ry="4.00002"/>
<polygon fill="#740e8f" stroke="#740e8f" points="584.84,-92.7911 579.859,-83.0216 580.941,-89.6609 577.042,-86.5307 577.042,-86.5307 577.042,-86.5307 580.941,-89.6609 574.225,-90.0398 584.84,-92.7911 584.84,-92.7911"/>
</g>
<!-- Transfer&#45;&gt;PurposeTransfer -->
<g id="edge5" class="edge"><title>Transfer&#45;&gt;PurposeTransfer</title>
<path fill="none" stroke="#79222f" d="M675.388,-115.377C677.077,-107.007 678.851,-98.2117 680.553,-89.7749"/>
<ellipse fill="none" stroke="#79222f" cx="674.567" cy="-119.445" rx="4.00001" ry="4.00001"/>
<polygon fill="#79222f" stroke="#79222f" points="680.605,-89.5167 686.994,-80.6042 681.594,-84.6154 682.583,-79.7142 682.583,-79.7142 682.583,-79.7142 681.594,-84.6154 678.172,-78.8242 680.605,-89.5167 680.605,-89.5167"/>
</g>
<!-- TransferType -->
<g id="node8" class="node"><title>TransferType</title>
<path fill="none" stroke="black" d="M588.089,-302.5C588.089,-302.5 745.286,-302.5 745.286,-302.5 751.286,-302.5 757.286,-308.5 757.286,-314.5 757.286,-314.5 757.286,-362.5 757.286,-362.5 757.286,-368.5 751.286,-374.5 745.286,-374.5 745.286,-374.5 588.089,-374.5 588.089,-374.5 582.089,-374.5 576.089,-368.5 576.089,-362.5 576.089,-362.5 576.089,-314.5 576.089,-314.5 576.089,-308.5 582.089,-302.5 588.089,-302.5"/>
<text text-anchor="middle" x="666.688" y="-359.3" font-family="Times,serif" font-size="14.00">TransferType</text>
<polyline fill="none" stroke="black" points="576.089,-352.5 757.286,-352.5 "/>
<text text-anchor="start" x="584.089" y="-337.3" font-family="Times,serif" font-size="14.00">id :int(11)</text>
<text text-anchor="start" x="584.089" y="-323.3" font-family="Times,serif" font-size="14.00">name :varchar(255)</text>
<text text-anchor="start" x="584.089" y="-309.3" font-family="Times,serif" font-size="14.00">template_name :varchar(255)</text>
</g>
<!-- TransferType&#45;&gt;Transfer -->
<g id="edge7" class="edge"><title>TransferType&#45;&gt;Transfer</title>
<path fill="none" stroke="#22b9f5" d="M666.688,-293.834C666.688,-266.979 666.688,-232.637 666.688,-205.533"/>
<ellipse fill="none" stroke="#22b9f5" cx="666.688" cy="-298.107" rx="4" ry="4"/>
<polygon fill="#22b9f5" stroke="#22b9f5" points="666.688,-205.53 671.188,-195.53 666.688,-200.53 666.688,-195.53 666.688,-195.53 666.688,-195.53 666.688,-200.53 662.188,-195.53 666.688,-205.53 666.688,-205.53"/>
</g>
<!-- User -->
<g id="node9" class="node"><title>User</title>
<path fill="none" stroke="black" d="M937.969,-253.5C937.969,-253.5 1115.41,-253.5 1115.41,-253.5 1121.41,-253.5 1127.41,-259.5 1127.41,-265.5 1127.41,-265.5 1127.41,-411.5 1127.41,-411.5 1127.41,-417.5 1121.41,-423.5 1115.41,-423.5 1115.41,-423.5 937.969,-423.5 937.969,-423.5 931.969,-423.5 925.969,-417.5 925.969,-411.5 925.969,-411.5 925.969,-265.5 925.969,-265.5 925.969,-259.5 931.969,-253.5 937.969,-253.5"/>
<text text-anchor="middle" x="1026.69" y="-408.3" font-family="Times,serif" font-size="14.00">User</text>
<polyline fill="none" stroke="black" points="925.969,-401.5 1127.41,-401.5 "/>
<text text-anchor="start" x="933.969" y="-386.3" font-family="Times,serif" font-size="14.00">updated_at :datetime</text>
<text text-anchor="start" x="933.969" y="-372.3" font-family="Times,serif" font-size="14.00">username :varchar(255)</text>
<text text-anchor="start" x="933.969" y="-358.3" font-family="Times,serif" font-size="14.00">guid :varchar(255)</text>
<text text-anchor="start" x="933.969" y="-344.3" font-family="Times,serif" font-size="14.00">sign_in_count :int(11)</text>
<text text-anchor="start" x="933.969" y="-330.3" font-family="Times,serif" font-size="14.00">current_sign_in_at :datetime</text>
<text text-anchor="start" x="933.969" y="-316.3" font-family="Times,serif" font-size="14.00">last_sign_in_at :datetime</text>
<text text-anchor="start" x="933.969" y="-302.3" font-family="Times,serif" font-size="14.00">current_sign_in_ip :varchar(255)</text>
<text text-anchor="start" x="933.969" y="-288.3" font-family="Times,serif" font-size="14.00">last_sign_in_ip :varchar(255)</text>
<text text-anchor="start" x="933.969" y="-274.3" font-family="Times,serif" font-size="14.00">created_at :datetime</text>
<text text-anchor="start" x="933.969" y="-260.3" font-family="Times,serif" font-size="14.00">id :int(11)</text>
</g>
</g>
</svg>
