<?xml version="1.0" encoding="UTF-8" standalone="no"?>
<!DOCTYPE svg PUBLIC "-//W3C//DTD SVG 1.1//EN"
 "http://www.w3.org/Graphics/SVG/1.1/DTD/svg11.dtd">
<!-- Generated by graphviz version 2.38.0 (20140413.2041)
 -->
<!-- Title: models_diagram Pages: 1 -->
<svg width="770pt" height="225pt"
 viewBox="0.00 0.00 769.69 225.00" xmlns="http://www.w3.org/2000/svg" xmlns:xlink="http://www.w3.org/1999/xlink">
<g id="graph0" class="graph" transform="scale(1 1) rotate(0) translate(4 221)">
<title>models_diagram</title>
<polygon fill="none" stroke="none" points="-4,4 -4,-221 765.688,-221 765.688,4 -4,4"/>
<!-- _diagram_info -->
<g id="node1" class="node"><title>_diagram_info</title>
<text text-anchor="start" x="8" y="-202.6" font-family="Times,serif" font-size="13.00">Models diagram</text>
<text text-anchor="start" x="8" y="-189.6" font-family="Times,serif" font-size="13.00">Date: Mar 16 2016 &#45; 11:12</text>
<text text-anchor="start" x="8" y="-176.6" font-family="Times,serif" font-size="13.00">Migration version: 20160316132743</text>
<text text-anchor="start" x="8" y="-163.6" font-family="Times,serif" font-size="13.00">Generated by RailRoady 1.4.2</text>
<text text-anchor="start" x="8" y="-150.6" font-family="Times,serif" font-size="13.00">http://railroady.prestonlee.com</text>
</g>
<!-- ApplicationRecord -->
<g id="node2" class="node"><title>ApplicationRecord</title>
<ellipse fill="none" stroke="black" cx="302.688" cy="-180.5" rx="77.2916" ry="18"/>
<text text-anchor="middle" x="302.688" y="-176.3" font-family="Times,serif" font-size="14.00">ApplicationRecord</text>
</g>
<!-- Entity -->
<g id="node3" class="node"><title>Entity</title>
<ellipse fill="none" stroke="black" cx="429.688" cy="-180.5" rx="31.948" ry="18"/>
<text text-anchor="middle" x="429.688" y="-176.3" font-family="Times,serif" font-size="14.00">Entity</text>
</g>
<!-- EntityTransfer -->
<g id="node4" class="node"><title>EntityTransfer</title>
<ellipse fill="none" stroke="black" cx="463.688" cy="-18" rx="61.2342" ry="18"/>
<text text-anchor="middle" x="463.688" y="-13.8" font-family="Times,serif" font-size="14.00">EntityTransfer</text>
</g>
<!-- Entity&#45;&gt;EntityTransfer -->
<g id="edge1" class="edge"><title>Entity&#45;&gt;EntityTransfer</title>
<path fill="none" stroke="#3b0387" d="M435.073,-154.079C441.329,-124.546 451.606,-76.0318 457.992,-45.8878"/>
<ellipse fill="none" stroke="#3b0387" cx="434.155" cy="-158.411" rx="4.00001" ry="4.00001"/>
<polygon fill="#3b0387" stroke="#3b0387" points="458.003,-45.8357 464.478,-36.9854 459.039,-40.9443 460.075,-36.0528 460.075,-36.0528 460.075,-36.0528 459.039,-40.9443 455.673,-35.1202 458.003,-45.8357 458.003,-45.8357"/>
</g>
<!-- Transfer -->
<g id="node7" class="node"><title>Transfer</title>
<ellipse fill="none" stroke="black" cx="536.688" cy="-90" rx="39.5027" ry="18"/>
<text text-anchor="middle" x="536.688" y="-85.8" font-family="Times,serif" font-size="14.00">Transfer</text>
</g>
<!-- Entity&#45;&gt;Transfer -->
<g id="edge2" class="edge"><title>Entity&#45;&gt;Transfer</title>
<path fill="none" stroke="#1f5a00" d="M454.005,-158.185C459.461,-153.475 465.246,-148.538 470.688,-144 483.434,-133.37 497.779,-121.804 509.831,-112.197"/>
<polygon fill="#1f5a00" stroke="#1f5a00" points="453.877,-158.296 443.375,-161.451 450.101,-161.573 446.324,-164.85 446.324,-164.85 446.324,-164.85 450.101,-161.573 449.273,-168.249 453.877,-158.296 453.877,-158.296"/>
<polygon fill="#1f5a00" stroke="#1f5a00" points="509.933,-112.116 520.561,-109.417 513.847,-109.005 517.761,-105.894 517.761,-105.894 517.761,-105.894 513.847,-109.005 514.962,-102.372 509.933,-112.116 509.933,-112.116"/>
</g>
<!-- Purpose -->
<g id="node5" class="node"><title>Purpose</title>
<ellipse fill="none" stroke="black" cx="650.688" cy="-180.5" rx="38.7042" ry="18"/>
<text text-anchor="middle" x="650.688" y="-176.3" font-family="Times,serif" font-size="14.00">Purpose</text>
</g>
<!-- PurposeTransfer -->
<g id="node6" class="node"><title>PurposeTransfer</title>
<ellipse fill="none" stroke="black" cx="619.688" cy="-18" rx="68.4923" ry="18"/>
<text text-anchor="middle" x="619.688" y="-13.8" font-family="Times,serif" font-size="14.00">PurposeTransfer</text>
</g>
<!-- Purpose&#45;&gt;PurposeTransfer -->
<g id="edge3" class="edge"><title>Purpose&#45;&gt;PurposeTransfer</title>
<path fill="none" stroke="#89ae4e" d="M645.778,-154.079C640.074,-124.546 630.703,-76.0318 624.881,-45.8878"/>
<ellipse fill="none" stroke="#89ae4e" cx="646.612" cy="-158.396" rx="4.00001" ry="4.00001"/>
<polygon fill="#89ae4e" stroke="#89ae4e" points="624.878,-45.8713 627.4,-35.1994 623.93,-40.9621 622.981,-36.0528 622.981,-36.0528 622.981,-36.0528 623.93,-40.9621 618.563,-36.9062 624.878,-45.8713 624.878,-45.8713"/>
</g>
<!-- Purpose&#45;&gt;Transfer -->
<g id="edge4" class="edge"><title>Purpose&#45;&gt;Transfer</title>
<path fill="none" stroke="#09ce64" d="M623.452,-158.356C605.528,-144.442 582.147,-126.29 564.173,-112.337"/>
<polygon fill="#09ce64" stroke="#09ce64" points="623.708,-158.555 628.847,-168.242 627.657,-161.621 631.607,-164.687 631.607,-164.687 631.607,-164.687 627.657,-161.621 634.366,-161.132 623.708,-158.555 623.708,-158.555"/>
<polygon fill="#09ce64" stroke="#09ce64" points="563.73,-111.993 558.591,-102.307 559.781,-108.927 555.831,-105.861 555.831,-105.861 555.831,-105.861 559.781,-108.927 553.072,-109.416 563.73,-111.993 563.73,-111.993"/>
</g>
<!-- Transfer&#45;&gt;EntityTransfer -->
<g id="edge6" class="edge"><title>Transfer&#45;&gt;EntityTransfer</title>
<path fill="none" stroke="#39cac3" d="M514.702,-67.918C506.314,-59.8745 496.704,-50.6594 488.103,-42.412"/>
<ellipse fill="none" stroke="#39cac3" cx="517.6" cy="-70.6962" rx="4.00002" ry="4.00002"/>
<polygon fill="#39cac3" stroke="#39cac3" points="488.079,-42.3884 483.975,-32.2191 484.47,-38.9278 480.861,-35.4672 480.861,-35.4672 480.861,-35.4672 484.47,-38.9278 477.746,-38.7152 488.079,-42.3884 488.079,-42.3884"/>
</g>
<!-- Transfer&#45;&gt;PurposeTransfer -->
<g id="edge5" class="edge"><title>Transfer&#45;&gt;PurposeTransfer</title>
<path fill="none" stroke="#957ccd" d="M560.978,-68.5143C570.85,-60.1882 582.302,-50.5305 592.456,-41.967"/>
<ellipse fill="none" stroke="#957ccd" cx="557.755" cy="-71.2322" rx="4.00002" ry="4.00002"/>
<polygon fill="#957ccd" stroke="#957ccd" points="592.621,-41.8272 603.167,-38.8201 596.443,-38.6037 600.266,-35.3801 600.266,-35.3801 600.266,-35.3801 596.443,-38.6037 597.364,-31.9402 592.621,-41.8272 592.621,-41.8272"/>
</g>
<!-- TransferType -->
<g id="node8" class="node"><title>TransferType</title>
<ellipse fill="none" stroke="black" cx="536.688" cy="-180.5" rx="57.1079" ry="18"/>
<text text-anchor="middle" x="536.688" y="-176.3" font-family="Times,serif" font-size="14.00">TransferType</text>
</g>
<!-- TransferType&#45;&gt;Transfer -->
<g id="edge7" class="edge"><title>TransferType&#45;&gt;Transfer</title>
<path fill="none" stroke="#b4bef6" d="M536.688,-154.189C536.688,-142.971 536.688,-129.752 536.688,-118.311"/>
<ellipse fill="none" stroke="#b4bef6" cx="536.688" cy="-158.436" rx="4" ry="4"/>
<polygon fill="#b4bef6" stroke="#b4bef6" points="536.688,-118.011 541.188,-108.011 536.688,-113.011 536.688,-108.011 536.688,-108.011 536.688,-108.011 536.688,-113.011 532.188,-108.011 536.688,-118.011 536.688,-118.011"/>
</g>
<!-- User -->
<g id="node9" class="node"><title>User</title>
<ellipse fill="none" stroke="black" cx="734.688" cy="-180.5" rx="27" ry="18"/>
<text text-anchor="middle" x="734.688" y="-176.3" font-family="Times,serif" font-size="14.00">User</text>
</g>
</g>
</svg>
